<?xml version="1.0" standalone="no"?>
<!DOCTYPE svg PUBLIC "-//W3C//DTD SVG 20010904//EN"
 "http://www.w3.org/TR/2001/REC-SVG-20010904/DTD/svg10.dtd">
<svg version="1.0" xmlns="http://www.w3.org/2000/svg"
 width="700.000000pt" height="700.000000pt" viewBox="0 0 700.000000 700.000000"
 preserveAspectRatio="xMidYMid meet">
<metadata>
Created by potrace 1.14, written by Peter Selinger 2001-2017
</metadata>
<g transform="translate(0.000000,700.000000) scale(0.100000,-0.100000)"
fill="#000000" stroke="none">
<path d="M2510 6983 c-41 -21 -60 -54 -60 -106 0 -52 52 -106 102 -108 18 -1
78 -2 133 -3 l100 -1 2 -228 c0 -126 3 -231 6 -234 4 -3 1188 -7 1280 -4 16 1
17 19 17 234 l0 234 50 -1 c28 0 51 -2 51 -5 1 -3 2 -143 3 -311 1 -215 5
-311 14 -327 32 -58 102 -79 162 -48 59 31 60 37 60 454 0 404 -1 416 -49 448
-24 17 -85 18 -931 21 -847 2 -907 1 -940 -15z"/>
<path d="M2783 6083 c-11 -28 8 -168 33 -237 33 -96 77 -167 149 -240 123
-126 270 -193 441 -200 357 -15 667 264 677 610 l2 79 -648 1 c-542 1 -650 -2
-654 -13z"/>
<path d="M2804 5260 c-71 -19 -121 -48 -149 -86 -50 -67 -143 -199 -141 -201
1 -1 85 29 187 68 101 38 244 93 317 120 74 28 155 54 180 58 143 21 306 -60
375 -186 14 -27 114 -280 222 -563 192 -503 197 -517 197 -590 0 -151 -82
-282 -214 -343 -20 -10 -115 -47 -210 -83 -114 -44 -178 -73 -187 -88 -88
-125 -231 -206 -376 -212 -69 -3 -105 2 -235 32 -36 8 -74 16 -85 17 -11 2
-46 9 -78 17 -31 7 -59 11 -61 9 -2 -2 -7 -58 -11 -124 -3 -66 -8 -149 -10
-185 -2 -36 -7 -112 -10 -170 -3 -58 -8 -139 -10 -180 -3 -41 -7 -124 -10
-185 -3 -60 -8 -144 -11 -185 -2 -41 -7 -115 -9 -165 -4 -95 -13 -246 -20
-355 -2 -36 -7 -121 -10 -188 -4 -68 -8 -143 -10 -165 -10 -110 -8 -223 5
-247 28 -53 93 -89 158 -86 l42 2 2 -355 c0 -196 2 -360 3 -366 27 -145 151
-257 298 -271 118 -11 232 40 302 134 62 84 65 106 65 498 0 327 1 352 18 356
9 2 64 3 122 2 l105 -1 1 -354 c0 -263 4 -364 14 -394 31 -97 96 -172 185
-215 73 -35 198 -35 275 1 70 33 136 99 169 169 l26 55 3 368 c2 275 6 367 15
368 7 0 28 2 48 4 56 4 103 32 128 75 29 52 29 32 6 440 -2 41 -7 122 -10 180
-6 114 -14 272 -20 390 -2 41 -7 129 -10 195 -3 66 -8 154 -10 195 -2 41 -7
127 -10 190 -3 63 -8 144 -10 180 -2 36 -7 121 -10 190 -4 69 -8 154 -10 190
-2 36 -7 133 -10 215 -4 83 -9 159 -11 170 -3 20 -3 20 11 1 8 -11 15 -27 15
-37 0 -9 7 -22 15 -29 8 -7 15 -17 15 -22 0 -6 15 -42 33 -82 18 -39 91 -199
163 -355 148 -326 174 -362 278 -395 142 -45 282 17 343 150 26 58 33 147 15
195 -10 26 -180 400 -251 552 -23 49 -41 90 -41 92 0 1 -17 41 -39 87 -21 45
-85 184 -141 308 -56 124 -119 261 -140 305 -20 44 -108 236 -195 428 -175
385 -191 408 -295 449 -54 21 -64 22 -645 23 -523 2 -597 0 -651 -15z"/>
<path d="M3005 4919 c-115 -44 -219 -85 -230 -90 -11 -5 -81 -32 -155 -59
-144 -55 -163 -66 -189 -120 -26 -52 -19 -91 46 -261 l60 -154 214 -47 c218
-48 246 -54 288 -63 154 -31 262 -99 340 -216 42 -63 81 -169 81 -220 0 -17 5
-29 13 -29 6 1 61 20 121 43 178 69 207 127 143 292 -31 79 -75 195 -300 785
-69 181 -88 205 -180 215 -35 3 -78 -10 -252 -76z"/>
<path d="M2064 4326 c-71 -103 -154 -223 -186 -267 -68 -96 -88 -143 -89 -212
-2 -96 32 -170 106 -229 45 -36 97 -54 235 -83 69 -15 175 -38 235 -51 61 -13
173 -37 250 -54 77 -16 169 -36 205 -44 128 -27 166 -29 227 -10 79 25 155 99
177 174 34 114 12 206 -69 287 -43 42 -64 55 -121 72 -38 11 -85 23 -104 26
-57 10 -387 82 -485 106 -22 6 -49 11 -60 13 -20 3 -73 127 -164 380 l-28 79
-129 -187z"/>
</g>
</svg>
